<?xml version="1.0" encoding="UTF-8" standalone="no"?>
<!DOCTYPE svg PUBLIC "-//W3C//DTD SVG 1.1//EN" "http://www.w3.org/Graphics/SVG/1.1/DTD/svg11.dtd">
<svg width="100%" height="100%" viewBox="0 0 500 500" version="1.1" xmlns="http://www.w3.org/2000/svg" xmlns:xlink="http://www.w3.org/1999/xlink" xml:space="preserve" xmlns:serif="http://www.serif.com/" style="fill-rule:evenodd;clip-rule:evenodd;stroke-linejoin:round;stroke-miterlimit:1.41421;">
    <g transform="matrix(4.54141,0,0,4.54141,-2703.35,-50.3589)">
        <g transform="matrix(1,0,0,1,596.534,70.0645)">
            <path d="M0,-8.625C2.217,-8.695 4.016,-9.121 5.4,-9.9C7.182,-10.927 8.535,-12.344 9.464,-14.15C10.389,-15.956 10.944,-18.505 11.126,-21.798C11.199,-23.427 11.262,-27.163 11.317,-33.006C11.372,-38.849 11.765,-43.026 12.496,-45.541C13.227,-48.055 14.359,-50.057 15.894,-51.544C17.428,-53.031 19.384,-54.11 21.758,-54.783C23.183,-55.173 25.467,-55.367 28.609,-55.367L32.188,-55.367L32.188,-47.028L29.988,-47.028C26.17,-47.028 23.652,-46.347 22.434,-44.983C21.216,-43.62 20.608,-40.654 20.608,-36.086C20.608,-27.836 20.479,-22.577 20.225,-20.311C19.749,-15.956 18.68,-12.617 17.017,-10.298C15.355,-7.979 12.733,-5.988 9.153,-4.322C13.171,-2.659 16.086,-0.153 17.895,3.193C19.704,6.541 20.608,12.019 20.608,19.635C20.608,26.437 20.681,30.456 20.826,31.691C21.044,33.605 21.499,35.077 22.189,36.102C22.698,36.811 23.507,37.368 24.615,37.775C25.725,38.182 28.589,38.408 32.188,38.408L32.188,46.742L28.618,46.722C24.974,46.722 22.314,46.426 20.637,45.823C18.195,44.938 16.237,43.512 14.761,41.548C13.285,39.583 12.328,36.951 11.891,33.661C11.563,31.32 11.382,26.964 11.345,20.589C11.308,14.074 10.935,9.665 10.222,7.362C9.509,5.06 8.294,3.281 6.577,2.025C4.859,0.768 2.667,0.105 0,0.032L0,-8.625Z" style="fill:white;fill-rule:nonzero;"/>
        </g>
        <g transform="matrix(1,0,0,1,704.155,70.6767)">
            <path d="M0,-9.633L0.119,-0.975C-2.11,-0.911 -3.915,-0.479 -5.289,0.318C-7.066,1.367 -8.409,2.803 -9.316,4.62C-10.223,6.44 -10.742,8.996 -10.876,12.291C-10.928,13.919 -10.939,17.666 -10.913,23.529C-10.887,29.391 -11.219,33.571 -11.913,36.078C-12.613,38.585 -13.717,40.599 -15.231,42.126C-16.744,43.648 -18.683,44.748 -21.052,45.416C-22.467,45.823 -24.748,46.049 -27.894,46.09L-32.913,46.409L-32.748,38.047L-29.387,37.771C-25.572,37.721 -23.063,37.012 -21.86,35.651C-20.663,34.294 -20.098,31.325 -20.16,26.754C-20.279,18.299 -20.207,12.909 -19.948,10.605C-19.496,6.314 -18.382,2.952 -16.604,0.52C-14.831,-1.912 -12.343,-3.821 -9.15,-5.21C-13.453,-7.136 -16.464,-9.708 -18.19,-12.926C-19.916,-16.143 -20.834,-21.488 -20.938,-28.959C-21.046,-36.785 -21.275,-41.367 -21.622,-42.708C-22.047,-44.508 -22.835,-45.791 -23.996,-46.555C-25.146,-47.318 -27.344,-47.68 -30.579,-47.639L-32.794,-47.641L-32.913,-55.979L-29.33,-55.993C-25.686,-56.042 -23.021,-55.758 -21.331,-55.143C-18.88,-54.325 -16.905,-52.934 -15.396,-50.969C-13.893,-49.008 -12.903,-46.399 -12.416,-43.148C-12.058,-40.814 -11.815,-36.462 -11.69,-30.089C-11.561,-23.574 -11.125,-19.164 -10.379,-16.852C-9.627,-14.545 -8.383,-12.771 -6.641,-11.539C-4.9,-10.305 -2.685,-9.668 0,-9.633" style="fill:white;fill-rule:nonzero;"/>
        </g>
        <g transform="matrix(1,0,0,1,674.055,95.721)">
            <path d="M0,-60.315C-0.534,-60.775 -1.353,-60.992 -2.452,-60.963C-3.551,-60.933 -4.608,-60.92 -5.614,-60.92C-6.153,-60.92 -6.775,-60.933 -7.49,-60.963C-8.2,-60.992 -8.916,-60.992 -9.627,-60.963C-10.342,-60.933 -10.98,-60.861 -11.548,-60.747C-12.113,-60.63 -12.483,-60.429 -12.66,-60.142C-13.079,-59.681 -13.269,-58.874 -13.24,-57.723C-13.209,-56.57 -13.193,-55.563 -13.193,-54.699L-13.193,-43.465C-13.193,-42.657 -13.162,-41.738 -13.105,-40.7C-13.048,-39.663 -13.162,-38.886 -13.463,-38.366C-13.878,-37.678 -14.65,-37.316 -15.78,-37.288C-16.91,-37.258 -18.009,-37.244 -19.077,-37.244L-21.622,-37.244C-21.668,-33.471 -21.519,-29.7 -21.571,-25.926L-15.692,-25.926C-14.562,-25.926 -13.789,-25.521 -13.375,-24.715C-13.315,-24.544 -13.287,-24.371 -13.287,-24.197C-13.287,-24.023 -13.256,-23.85 -13.193,-23.679L-13.193,-22.815C-13.137,-22.584 -13.121,-22.355 -13.149,-22.123C-13.181,-21.892 -13.193,-21.662 -13.193,-21.431L-13.193,-6.396C-13.193,-5.929 -13.209,-5.401 -13.24,-4.793C-13.269,-4.191 -13.269,-3.588 -13.24,-2.98C-13.209,-2.377 -13.149,-1.799 -13.059,-1.257C-12.971,-0.704 -12.838,-0.317 -12.66,-0.086C-12.483,0.2 -12.113,0.386 -11.548,0.477C-10.98,0.562 -10.358,0.622 -9.674,0.647C-8.988,0.677 -8.304,0.677 -7.62,0.647C-6.936,0.622 -6.329,0.607 -5.795,0.607C-4.785,0.607 -3.701,0.622 -2.54,0.647C-1.384,0.677 -0.534,0.461 0,-0.001C0.415,-0.287 0.622,-0.805 0.622,-1.558L0.622,-58.889C0.622,-59.55 0.415,-60.026 0,-60.315" style="fill:rgb(61,212,158);fill-rule:nonzero;"/>
        </g>
        <g transform="matrix(1,0,0,1,648.732,37.9524)">
            <path d="M0,-14.26C2.968,-14.26 6.074,-12.614 6.074,-9.774C6.074,-7.408 3.727,-5.556 2.002,-3.868L6.833,-3.868L6.833,0L-4.533,0L-4.533,-3.868C-3.014,-4.774 0.092,-6.111 0.092,-8.21C0.092,-9.322 -0.736,-9.836 -1.887,-9.836C-2.784,-9.836 -3.405,-9.548 -4.073,-9.218L-4.073,-13.478C-2.853,-14.034 -1.427,-14.26 0,-14.26" style="fill:white;fill-rule:nonzero;"/>
        </g>
        <g transform="matrix(1,0,0,1,625.848,95.721)">
            <path d="M0,-60.315C0.534,-60.775 1.353,-60.992 2.452,-60.963C3.551,-60.933 4.608,-60.92 5.614,-60.92C6.153,-60.92 6.775,-60.933 7.49,-60.963C8.2,-60.992 8.916,-60.992 9.627,-60.963C10.342,-60.933 10.98,-60.861 11.548,-60.747C12.113,-60.63 12.483,-60.429 12.659,-60.142C13.079,-59.681 13.268,-58.874 13.24,-57.723C13.209,-56.57 13.193,-55.563 13.193,-54.699L13.193,-43.465C13.193,-42.657 13.162,-41.738 13.105,-40.7C13.048,-39.663 13.162,-38.886 13.463,-38.366C13.878,-37.678 14.65,-37.316 15.78,-37.288C16.91,-37.258 18.009,-37.244 19.077,-37.244L21.622,-37.244C21.668,-33.471 21.725,-29.7 21.777,-25.926L15.692,-25.926C14.562,-25.926 13.789,-25.521 13.375,-24.715C13.315,-24.544 13.286,-24.371 13.286,-24.197C13.286,-24.023 13.255,-23.85 13.193,-23.679L13.193,-22.815C13.136,-22.584 13.121,-22.355 13.149,-22.123C13.18,-21.892 13.193,-21.662 13.193,-21.431L13.193,-6.396C13.193,-5.929 13.209,-5.401 13.24,-4.793C13.268,-4.191 13.268,-3.588 13.24,-2.98C13.209,-2.377 13.149,-1.799 13.059,-1.257C12.97,-0.704 12.838,-0.317 12.659,-0.086C12.483,0.2 12.113,0.386 11.548,0.477C10.98,0.562 10.358,0.622 9.674,0.647C8.988,0.677 8.304,0.677 7.62,0.647C6.936,0.622 6.329,0.607 5.795,0.607C4.784,0.607 3.701,0.622 2.54,0.647C1.384,0.677 0.534,0.461 0,-0.001C-0.415,-0.287 -0.622,-0.805 -0.622,-1.558L-0.622,-58.889C-0.622,-59.55 -0.415,-60.026 0,-60.315" style="fill:rgb(61,212,158);fill-rule:nonzero;"/>
        </g>
    </g>
</svg>
